<?xml version="1.0" standalone="no"?>
<!DOCTYPE svg PUBLIC "-//W3C//DTD SVG 20010904//EN"
 "http://www.w3.org/TR/2001/REC-SVG-20010904/DTD/svg10.dtd">
<svg version="1.0" xmlns="http://www.w3.org/2000/svg"
 width="500.000000pt" height="500.000000pt" viewBox="0 0 500.000000 500.000000"
 preserveAspectRatio="xMidYMid meet">

<g transform="translate(0.000000,500.000000) scale(0.100000,-0.100000)"
fill="#000000" stroke="none">
<path d="M3335 4101 c-47 -29 -74 -64 -100 -127 -22 -54 -24 -56 -30 -31 -9
32 24 31 -350 12 -248 -12 -435 -21 -1102 -49 -99 -4 -103 -3 -103 53 0 15 -7
36 -16 47 -15 18 -15 18 -5 -3 33 -67 -15 -153 -98 -178 -15 -5 -21 -4 -17 3
3 6 1 14 -5 17 -5 4 -8 13 -5 20 2 7 -2 25 -10 40 -8 15 -14 34 -14 42 0 8 -9
17 -20 20 -12 3 -28 22 -36 42 -36 82 -35 81 -11 91 12 5 17 9 11 9 -50 3
-142 -78 -164 -144 -15 -45 -6 -129 20 -183 21 -44 72 -92 119 -113 39 -17 39
-34 1 -54 -34 -18 -40 -30 -10 -20 11 3 20 4 20 2 0 -3 -105 -67 -233 -142
-261 -155 -530 -316 -536 -321 -2 -2 -2 -6 0 -9 3 -2 48 22 99 54 196 120 567
331 582 331 8 0 21 -7 29 -16 56 -68 225 -72 295 -7 31 29 25 42 -8 19 -12 -9
-29 -16 -38 -16 -8 0 0 9 18 20 40 25 43 35 3 12 -16 -9 -32 -14 -34 -12 -10
10 -19 160 -10 160 4 0 26 -23 48 -52 22 -28 58 -72 81 -97 43 -48 126 -154
347 -446 71 -93 132 -172 136 -175 11 -9 7 -180 -5 -180 -6 0 -143 -14 -305
-30 -550 -57 -912 -90 -936 -84 -19 5 -23 13 -23 44 0 24 -7 43 -20 55 -20 18
-20 18 -15 -16 l5 -34 -14 35 -14 35 -1 -33 c-1 -18 -7 -47 -15 -65 -14 -35
-69 -87 -91 -87 -16 0 -26 25 -15 36 5 5 0 28 -12 54 -12 25 -20 49 -19 53 0
4 -12 15 -29 25 -32 18 -35 24 -45 90 l-7 42 51 0 c52 0 96 -15 139 -46 18
-14 21 -14 17 -2 -15 38 -145 74 -207 57 -16 -4 -28 -4 -28 2 0 5 9 9 19 9 34
0 31 15 -10 61 -21 24 -39 50 -39 58 0 20 20 0 61 -59 24 -35 41 -50 56 -50
21 0 19 5 -23 65 -25 35 -49 67 -55 70 -16 11 -9 35 10 35 25 0 1042 -304
1096 -328 28 -12 55 -16 90 -12 l50 5 -125 36 c-69 20 -244 73 -390 117 -146
45 -360 110 -476 145 -133 41 -219 72 -232 85 -11 11 -18 23 -15 25 2 3 8 27
12 54 4 29 12 47 19 45 20 -4 13 27 -8 38 -11 6 -20 18 -20 28 0 9 -4 24 -9
31 -6 10 -8 1 -4 -26 7 -51 -19 -109 -61 -134 -40 -25 -43 -24 -51 9 -15 62
-48 122 -66 122 -15 0 -19 11 -25 60 -4 33 -7 63 -8 67 0 5 19 11 44 14 l45 6
-39 1 c-152 6 -258 -130 -222 -286 7 -33 57 -98 89 -117 27 -16 35 -39 17 -50
-5 -3 -10 -31 -10 -61 0 -48 4 -60 28 -84 39 -39 132 -64 147 -40 3 6 10 10
16 10 5 0 -3 -19 -18 -41 -21 -31 -28 -57 -31 -106 -4 -64 13 -153 29 -153 5
0 9 -6 9 -13 0 -7 16 -26 35 -41 33 -27 35 -31 35 -90 0 -112 64 -164 205
-165 l69 -1 261 -266 c143 -147 258 -272 256 -278 -5 -18 -15 -117 -15 -167
-1 -44 21 -102 54 -142 10 -13 14 -37 12 -82 -5 -111 41 -171 157 -200 66 -17
143 -10 199 19 41 21 102 92 102 119 0 18 -5 15 -23 -18 -27 -49 -80 -85 -121
-85 l-31 1 30 24 c17 14 34 25 39 25 9 0 3 96 -7 106 -3 4 -20 1 -38 -5 -18
-6 -61 -11 -97 -11 -66 0 -80 7 -26 13 16 2 38 7 49 12 25 11 62 45 49 45 -5
0 11 13 35 29 24 16 61 49 82 73 l37 43 683 -3 c376 -2 692 -5 701 -8 9 -3 20
-19 24 -37 3 -17 15 -50 25 -73 14 -34 16 -54 10 -100 -10 -71 0 -107 43 -153
65 -70 194 -93 283 -50 24 11 43 25 43 29 0 5 -12 2 -27 -6 -28 -14 -93 -20
-93 -8 0 3 10 14 22 23 15 13 21 29 22 62 1 43 0 44 -34 49 -29 5 -32 7 -15
13 12 4 37 22 57 40 20 17 54 44 77 59 95 64 127 182 78 289 -28 62 -61 100
-106 123 -42 22 -39 13 4 -14 52 -32 85 -81 94 -141 10 -60 0 -105 -31 -144
-21 -27 -96 -68 -109 -59 -4 2 -10 23 -14 47 -4 23 -11 51 -15 62 -4 11 -8 24
-8 28 0 5 -10 17 -21 26 -12 10 -21 23 -21 30 0 6 -12 11 -27 11 -24 0 -33 9
-61 65 -19 35 -31 69 -27 76 4 6 21 17 39 25 17 7 25 13 18 14 -7 0 -32 -10
-55 -22 -23 -12 -44 -22 -47 -23 -3 0 -17 -9 -32 -20 -29 -23 -62 -84 -72
-132 -4 -17 -14 -37 -22 -44 -12 -9 -161 -11 -677 -6 -364 3 -669 9 -678 12
-12 4 -18 24 -22 65 -3 32 -13 74 -22 92 -10 18 -23 43 -29 56 -6 12 -20 25
-31 28 -11 4 -33 16 -48 27 -18 12 -52 21 -94 25 -64 5 -90 -3 -203 -58 -11
-5 -44 32 -125 139 -61 80 -178 234 -261 342 -152 198 -179 240 -189 297 -10
57 12 63 308 92 106 10 316 30 467 45 l275 27 165 -49 165 -49 -3 -55 c-3 -54
20 -143 30 -117 10 23 100 139 105 134 3 -3 -19 -45 -50 -94 -42 -68 -51 -89
-37 -85 11 3 39 -3 64 -12 89 -34 215 -8 262 54 6 8 16 11 23 7 10 -7 229
-279 578 -718 51 -64 73 -82 73 -58 0 6 -102 140 -227 297 -412 517 -433 545
-433 558 0 7 -3 15 -8 17 -20 9 -69 101 -64 124 2 13 8 24 12 24 4 0 23 13 43
29 23 18 45 27 59 24 13 -2 183 -19 378 -38 571 -55 1244 -125 1259 -130 22
-8 4 -52 -47 -119 -25 -34 -38 -54 -28 -46 17 13 20 13 30 -4 49 -81 102 -110
207 -111 47 0 86 5 102 14 36 19 35 32 -1 19 -16 -6 -41 -8 -56 -4 -27 7 -28
8 -11 26 10 11 20 41 23 67 4 40 11 53 43 81 22 19 39 40 39 47 0 7 23 29 50
49 56 40 85 81 95 132 7 39 -8 101 -31 129 -16 20 -16 20 -8 0 16 -44 16 -94
-2 -130 -31 -65 -124 -103 -124 -51 0 14 -5 28 -10 31 -6 4 -9 12 -8 18 1 7
-10 31 -25 55 -19 29 -34 42 -50 42 -16 0 -34 16 -61 51 -21 28 -36 53 -33 55
2 2 21 13 43 24 21 10 33 19 26 20 -7 0 -27 -7 -45 -16 -107 -54 -138 -110
-140 -246 l0 -91 -116 6 c-64 4 -224 18 -356 32 -132 14 -305 32 -385 40 -188
20 -500 53 -620 66 -121 14 -173 34 -140 54 6 4 8 14 6 23 -3 10 -7 32 -8 50
-3 46 -15 40 -20 -12 -7 -57 -41 -104 -92 -127 -38 -17 -41 -17 -51 -1 -5 9
-11 26 -12 37 -7 46 -25 84 -56 118 -18 21 -37 37 -43 37 -5 0 -20 23 -32 52
-23 54 -18 77 17 79 10 0 12 2 3 6 -16 6 -94 -40 -124 -74 -13 -16 -29 -29
-35 -30 -16 -3 -603 761 -603 784 0 9 16 13 48 13 62 0 1561 -97 1581 -103 5
-1 26 16 45 37 20 21 39 36 43 33 6 -7 -29 -53 -131 -172 -45 -53 -49 -60 -17
-29 l43 41 49 -32 c79 -54 204 -56 253 -4 l21 22 -23 -6 c-12 -3 -20 -1 -16 4
3 5 -3 9 -13 9 -15 0 -18 10 -20 65 -2 62 -1 65 24 71 28 7 21 14 169 -151 79
-88 496 -578 563 -662 35 -44 51 -53 51 -30 0 6 -64 86 -141 177 -78 91 -239
279 -358 418 -160 187 -220 265 -233 300 -22 64 -22 65 12 80 16 8 40 27 51
44 25 34 37 116 21 143 -8 15 -9 14 -9 -9 0 -38 -30 -98 -58 -119 -30 -21 -92
-36 -81 -19 4 7 2 12 -3 12 -6 0 -9 10 -7 23 6 35 -39 107 -66 107 -8 0 -24
17 -36 39 -12 21 -29 44 -37 51 -19 16 -11 28 29 46 17 7 24 13 16 14 -8 0
-28 -8 -45 -19z m-135 -203 c10 -26 15 -49 12 -52 -3 -4 0 -6 7 -6 7 0 9 -4 6
-10 -9 -15 31 -97 54 -112 26 -16 26 -30 1 -53 -24 -21 -48 -21 -745 25 -726
48 -878 60 -891 71 -7 5 -9 19 -6 31 l5 21 -21 -21 c-27 -27 -40 -28 -38 -4 1
18 34 48 43 38 3 -3 14 6 25 19 10 13 33 27 51 30 18 2 196 12 397 21 201 8
523 23 715 33 193 10 354 17 359 17 4 -1 16 -23 26 -48z m100 -292 c0 -2 -8
-10 -17 -17 -16 -13 -17 -12 -4 4 13 16 21 21 21 13z m-30 -46 c0 -5 -2 -10
-4 -10 -3 0 -8 5 -11 10 -3 6 -1 10 4 10 6 0 11 -4 11 -10z m-1061 -883 c6 -8
14 -29 18 -47 5 -26 3 -32 -8 -28 -8 3 -56 16 -106 29 -51 13 -93 27 -93 31 0
4 21 10 48 13 26 3 54 8 62 9 36 8 68 5 79 -7z m385 -250 l18 -27 -36 -15
c-49 -21 -59 -19 -49 8 4 12 7 42 6 67 l-2 44 23 -25 c12 -13 31 -37 40 -52z
m1756 53 c0 -5 -5 -10 -11 -10 -5 0 -7 5 -4 10 3 6 8 10 11 10 2 0 4 -4 4 -10z
m-3458 -137 c18 -22 89 -110 157 -193 128 -157 328 -429 338 -458 3 -9 -73 62
-169 158 -241 243 -338 347 -338 363 0 8 9 22 20 32 11 10 20 22 20 26 0 8
-46 2 -62 -7 -4 -3 -8 8 -8 23 0 16 -7 38 -15 49 -15 20 -20 56 -8 68 8 7 18
-2 65 -61z m801 -587 c99 -44 157 -160 123 -249 -17 -44 -73 -88 -128 -102
-29 -7 -35 3 -41 65 -4 36 -29 100 -40 100 -5 0 -7 6 -4 14 6 15 -12 26 -44
26 -22 0 -33 24 -42 88 -5 42 -4 44 26 57 42 18 109 19 150 1z m-146 -512 c-3
-3 -12 -4 -19 -1 -8 3 -5 6 6 6 11 1 17 -2 13 -5z"/>
<path d="M1590 4056 c0 -2 8 -10 18 -17 15 -13 16 -12 3 4 -13 16 -21 21 -21
13z"/>
<path d="M3586 4047 c3 -10 9 -15 12 -12 3 3 0 11 -7 18 -10 9 -11 8 -5 -6z"/>
<path d="M3084 3388 l-19 -23 23 19 c12 11 22 21 22 23 0 8 -8 2 -26 -19z"/>
<path d="M565 3370 c10 -11 20 -20 23 -20 3 0 -3 9 -13 20 -10 11 -20 20 -23
20 -3 0 3 -9 13 -20z"/>
<path d="M3029 3323 c-13 -16 -12 -17 4 -4 16 13 21 21 13 21 -2 0 -10 -8 -17
-17z"/>
<path d="M2971 3256 l-35 -41 39 37 c22 21 37 39 35 41 -3 2 -20 -15 -39 -37z"/>
<path d="M2904 3178 l-29 -33 33 29 c17 17 32 31 32 33 0 8 -8 1 -36 -29z"/>
<path d="M2849 3113 c-13 -16 -12 -17 4 -4 16 13 21 21 13 21 -2 0 -10 -8 -17
-17z"/>
<path d="M2784 3038 l-19 -23 23 19 c21 18 27 26 19 26 -2 0 -12 -10 -23 -22z"/>
<path d="M2408 3033 c12 -2 30 -2 40 0 9 3 -1 5 -23 4 -22 0 -30 -2 -17 -4z"/>
<path d="M2560 2997 c0 -2 15 -16 33 -33 l32 -29 -29 33 c-28 30 -36 37 -36
29z"/>
<path d="M2714 2958 l-29 -33 33 29 c30 28 37 36 29 36 -2 0 -16 -15 -33 -32z"/>
<path d="M2627 2912 c3 -12 9 -25 14 -28 14 -8 11 10 -6 32 -13 18 -14 18 -8
-4z"/>
<path d="M4159 2283 c-13 -16 -12 -17 4 -4 9 7 17 15 17 17 0 8 -8 3 -21 -13z"/>
<path d="M4059 2153 c-13 -16 -12 -17 4 -4 16 13 21 21 13 21 -2 0 -10 -8 -17
-17z"/>
<path d="M3859 1893 c-23 -32 -36 -53 -28 -46 17 14 83 103 76 103 -3 0 -24
-26 -48 -57z"/>
<path d="M1965 1919 c-4 -6 -5 -12 -2 -15 2 -3 7 2 10 11 7 17 1 20 -8 4z"/>
<path d="M1930 1860 c-6 -11 -8 -20 -6 -20 3 0 10 9 16 20 6 11 8 20 6 20 -3
0 -10 -9 -16 -20z"/>
<path d="M3794 1808 l-19 -23 23 19 c12 11 22 21 22 23 0 8 -8 2 -26 -19z"/>
<path d="M3513 1723 c9 -2 23 -2 30 0 6 3 -1 5 -18 5 -16 0 -22 -2 -12 -5z"/>
<path d="M3568 1713 c6 -2 18 -2 25 0 6 3 1 5 -13 5 -14 0 -19 -2 -12 -5z"/>
</g>
</svg>
