<?xml version="1.0" standalone="no"?>
<!DOCTYPE svg PUBLIC "-//W3C//DTD SVG 20010904//EN"
 "http://www.w3.org/TR/2001/REC-SVG-20010904/DTD/svg10.dtd">
<svg version="1.0" xmlns="http://www.w3.org/2000/svg"
 width="564.000000pt" height="564.000000pt" viewBox="0 0 564.000000 564.000000"
 preserveAspectRatio="xMidYMid meet">

<g transform="translate(0.000000,564.000000) scale(0.100000,-0.100000)"
fill="#000000" stroke="none">
<path d="M2536 5275 c-55 -19 -87 -45 -113 -91 -22 -39 -23 -44 -23 -437 l0
-397 27 -43 c49 -79 90 -95 241 -96 l112 -1 0 -115 0 -115 -875 0 c-863 0
-875 0 -930 21 -68 25 -128 82 -155 145 -11 25 -20 50 -20 55 0 5 44 9 98 9
110 1 164 10 188 35 9 9 27 23 40 32 30 19 58 111 50 162 -3 20 -6 190 -6 376
-1 193 -5 347 -10 355 -7 10 -10 11 -10 3 0 -7 -7 -13 -16 -13 -12 0 -14 -7
-9 -32 5 -29 4 -31 -6 -13 -20 32 -59 71 -59 59 0 -7 7 -17 15 -24 9 -7 14
-19 11 -26 -3 -7 -1 -16 5 -19 5 -4 6 -12 2 -18 -9 -15 -11 -86 -12 -444 l-1
-282 -33 -25 -33 -26 -252 -2 c-139 -2 -252 -6 -252 -10 0 -11 -33 4 -48 21
-8 9 -11 12 -9 6 3 -5 -2 -16 -10 -24 -13 -12 -14 -11 -9 7 4 11 2 23 -4 27
-13 8 -42 -14 -34 -26 3 -5 0 -9 -5 -9 -6 0 -11 -9 -11 -20 0 -14 7 -20 23
-20 18 0 19 -2 7 -10 -12 -8 -9 -10 13 -10 16 0 26 -4 23 -9 -3 -5 9 -11 26
-15 21 -4 34 -2 40 6 6 10 8 10 8 1 0 -10 25 -13 90 -13 83 0 90 -1 90 -20 0
-11 5 -20 10 -20 6 0 10 -8 10 -18 0 -26 48 -112 84 -150 41 -45 102 -80 177
-102 34 -11 65 -19 68 -18 3 0 394 0 869 -1 l863 -1 -3 -112 -3 -113 -26 -3
c-32 -4 -80 -46 -103 -89 -10 -20 -16 -56 -16 -96 0 -35 -3 -85 -6 -111 -6
-39 -11 -47 -33 -52 -45 -10 -124 -41 -175 -68 -60 -32 -79 -33 -103 -3 -10
12 -47 47 -83 77 -64 55 -64 55 -131 55 -66 0 -67 0 -120 -50 -80 -73 -84 -81
-84 -156 0 -72 3 -78 104 -189 53 -58 61 -79 36 -100 -8 -7 -15 -18 -15 -24 0
-6 -6 -22 -13 -36 -7 -14 -21 -52 -32 -85 -10 -33 -24 -66 -31 -73 -7 -8 -54
-17 -120 -23 -131 -12 -157 -21 -192 -67 -25 -33 -27 -43 -27 -131 0 -85 3
-100 24 -130 34 -48 91 -71 177 -71 98 0 134 -9 144 -34 5 -12 23 -60 41 -108
17 -48 38 -93 45 -99 8 -6 14 -18 14 -27 0 -13 -48 -75 -127 -162 -26 -28 -38
-93 -28 -146 5 -27 23 -53 65 -95 66 -65 112 -84 173 -70 42 10 43 10 144 98
79 67 75 67 152 25 25 -13 77 -34 116 -46 68 -22 70 -23 77 -62 4 -21 7 -73 7
-115 1 -67 4 -81 30 -115 32 -46 71 -74 101 -74 20 0 20 -5 20 -245 l0 -245
-212 -1 c-807 -5 -766 -8 -812 54 -20 28 -21 42 -26 490 -6 511 -5 502 -72
567 -74 71 -71 70 -442 70 -306 0 -338 -2 -378 -19 -48 -21 -86 -58 -116 -113
-18 -32 -21 -57 -23 -187 l-2 -151 -26 -1 c-14 0 -70 -2 -124 -4 -104 -3 -143
-15 -191 -60 -55 -51 -56 -61 -56 -482 0 -369 1 -389 21 -429 11 -23 37 -55
57 -71 l37 -28 317 0 316 0 38 31 c21 16 47 48 58 70 20 37 21 57 24 398 3
403 -1 445 -51 499 -52 56 -84 67 -191 67 -52 0 -101 3 -110 6 -14 5 -16 28
-16 145 0 152 5 170 61 210 27 19 43 20 351 19 359 0 347 2 396 -70 22 -33 22
-33 22 -475 0 -489 1 -499 63 -563 18 -18 48 -43 67 -55 l35 -22 1035 0 1035
0 36 22 c53 34 87 71 109 121 19 42 20 68 20 490 0 432 1 446 21 478 11 19 33
43 49 54 27 19 43 20 346 20 312 0 318 0 350 -22 54 -37 64 -72 64 -217 l0
-129 -119 -4 c-111 -4 -122 -6 -167 -34 -29 -17 -58 -46 -71 -69 -22 -40 -23
-44 -23 -438 0 -348 2 -402 16 -430 19 -38 40 -59 86 -87 31 -19 49 -20 333
-20 288 0 301 1 335 21 42 26 55 41 80 94 18 37 20 66 20 424 l0 383 -25 47
c-47 85 -107 111 -257 111 l-98 0 0 123 c0 151 -16 216 -68 270 -74 78 -69 77
-452 77 -325 0 -342 -1 -385 -21 -51 -24 -89 -65 -116 -124 -17 -37 -19 -76
-19 -485 0 -415 -1 -448 -19 -480 -38 -71 -26 -70 -522 -70 -244 0 -459 0
-476 0 l-33 0 0 240 0 239 44 19 c24 11 56 37 72 57 27 35 29 46 34 151 3 62
10 117 15 122 6 5 37 18 70 27 33 10 83 30 110 45 85 44 77 45 172 -36 124
-106 186 -116 274 -44 71 60 99 105 99 165 0 56 -21 94 -100 181 -56 61 -62
75 -44 110 27 51 84 194 84 209 0 22 11 24 135 33 90 7 116 13 146 32 56 37
69 68 69 172 0 85 -2 92 -30 128 -38 48 -60 56 -193 69 -60 6 -112 13 -117 16
-5 3 -12 20 -15 38 -4 17 -27 74 -51 126 -24 52 -44 96 -44 98 0 1 30 37 66
79 81 92 94 117 94 174 0 54 -23 96 -88 156 -77 72 -164 73 -242 3 -78 -71
-127 -109 -137 -109 -6 0 -30 11 -54 24 -45 25 -134 59 -180 70 -33 7 -39 27
-39 136 -1 126 -43 201 -120 211 -25 4 -25 5 -28 117 l-3 112 875 0 c850 0
876 1 940 20 125 39 226 143 256 262 l12 46 128 4 c124 3 130 4 172 33 84 59
83 56 83 505 0 456 1 449 -89 505 l-49 30 -271 3 c-295 4 -326 0 -387 -49 -69
-55 -69 -52 -69 -489 0 -432 -1 -427 63 -487 45 -43 85 -53 203 -53 91 0 104
-2 104 -17 0 -33 -43 -104 -86 -142 -83 -73 -52 -71 -1022 -71 l-862 0 0 115
0 115 109 0 c59 0 123 5 142 11 40 14 82 50 110 96 19 31 20 50 19 433 l0 401
-24 37 c-61 95 -87 102 -405 102 -193 -1 -266 -4 -295 -15z m598 -114 l26 -25
-2 -390 -3 -390 -35 -24 c-34 -23 -36 -23 -301 -20 -267 3 -267 3 -293 27
l-26 24 0 386 c0 212 4 391 8 398 4 6 21 19 37 28 26 13 69 15 297 13 l266 -3
26 -24z m2061 14 c18 -9 37 -27 44 -41 7 -17 11 -137 11 -385 0 -399 -1 -407
-63 -429 -18 -6 -133 -10 -276 -10 -214 0 -250 2 -281 18 -20 10 -37 27 -41
42 -9 33 -9 727 0 760 4 15 21 32 41 42 31 16 67 18 283 18 204 0 255 -3 282
-15z m-4754 -912 c13 -16 12 -17 -3 -4 -10 7 -18 15 -18 17 0 8 8 3 21 -13z
m2467 -723 c16 -17 21 -43 26 -135 11 -170 9 -166 97 -191 69 -20 232 -94 254
-115 20 -20 48 -6 122 59 152 132 156 133 221 71 54 -53 56 -86 7 -133 -19
-19 -35 -37 -35 -40 0 -3 -23 -29 -50 -58 -28 -29 -53 -62 -56 -73 -3 -14 9
-45 35 -90 39 -66 47 -87 86 -218 9 -32 25 -62 35 -67 10 -5 78 -14 151 -18
154 -10 159 -13 159 -104 0 -79 -19 -98 -97 -99 -85 0 -213 -15 -223 -25 -5
-5 -22 -53 -38 -106 -16 -54 -48 -130 -71 -170 -33 -57 -41 -78 -34 -95 4 -12
45 -65 91 -117 51 -60 82 -105 82 -119 0 -27 -77 -107 -104 -107 -28 0 -56 19
-148 102 -48 43 -95 78 -103 78 -9 0 -34 -12 -58 -27 -52 -33 -180 -87 -247
-104 -29 -7 -55 -20 -60 -29 -5 -8 -11 -69 -15 -135 -5 -69 -14 -132 -22 -148
-13 -25 -17 -27 -82 -27 -45 0 -72 5 -80 13 -6 8 -16 72 -22 142 -6 71 -14
138 -19 149 -6 16 -23 26 -61 35 -30 7 -70 20 -89 28 -88 37 -172 79 -182 90
-23 28 -56 8 -190 -114 -67 -62 -99 -68 -148 -27 -44 38 -62 75 -47 101 17 29
65 90 110 138 21 22 45 52 53 67 14 26 12 32 -18 88 -60 111 -67 127 -88 206
-11 43 -24 82 -28 86 -10 10 -161 28 -236 28 -72 0 -86 17 -86 100 0 49 4 71
16 81 9 7 62 16 132 20 189 13 177 7 198 96 10 43 41 122 69 178 36 71 50 107
44 121 -6 16 -49 70 -132 164 -28 32 -46 62 -47 77 0 19 90 103 112 103 25 0
58 -17 83 -44 11 -12 51 -47 90 -78 68 -57 97 -69 110 -47 11 17 174 89 254
113 63 18 76 25 82 47 10 39 18 127 19 197 0 84 18 102 100 102 47 0 63 -4 78
-20z m-1883 -2246 c42 -27 45 -58 45 -421 0 -375 -3 -397 -56 -422 -17 -7
-112 -11 -285 -11 -289 0 -308 4 -328 61 -15 43 -15 706 0 746 23 62 27 63
327 63 231 0 276 -2 297 -16z m4190 -8 l30 -24 3 -359 c2 -197 0 -373 -3 -391
-4 -23 -16 -39 -38 -53 -30 -18 -48 -19 -304 -17 -268 3 -273 3 -295 26 l-23
23 0 385 0 386 28 24 28 24 272 0 272 0 30 -24z"/>
<path d="M2662 5054 c-12 -8 -22 -24 -22 -34 0 -41 35 -50 192 -50 135 0 150
2 168 20 11 11 20 25 20 30 0 6 -9 19 -20 30 -18 18 -33 20 -168 20 -117 0
-152 -3 -170 -16z"/>
<path d="M2708 4879 c-25 -14 -24 -65 1 -79 11 -5 67 -10 124 -10 88 0 106 3
120 18 21 23 22 46 1 66 -12 13 -38 16 -122 16 -59 0 -115 -5 -124 -11z"/>
<path d="M2702 4698 c-19 -19 -15 -66 7 -78 11 -5 67 -10 125 -10 82 0 108 3
120 16 22 21 20 61 -3 74 -28 14 -234 13 -249 -2z"/>
<path d="M2662 4514 c-27 -18 -28 -45 -4 -67 16 -14 43 -17 174 -17 137 0 157
2 171 18 22 24 21 38 -3 62 -18 18 -33 20 -168 20 -117 0 -152 -3 -170 -16z"/>
<path d="M4740 5050 c-11 -11 -20 -24 -20 -30 0 -5 9 -19 20 -30 18 -18 33
-20 173 -20 136 0 156 2 170 18 21 23 22 46 1 66 -13 13 -43 16 -170 16 -141
0 -156 -2 -174 -20z"/>
<path d="M4786 4874 c-21 -21 -20 -47 2 -67 15 -14 40 -17 130 -17 108 0 112
1 128 25 15 23 15 27 0 50 -16 24 -20 25 -131 25 -90 0 -117 -3 -129 -16z"/>
<path d="M4786 4694 c-9 -8 -16 -24 -16 -34 0 -41 25 -50 144 -50 87 0 116 3
126 15 18 22 19 48 2 68 -21 24 -232 26 -256 1z"/>
<path d="M4740 4510 c-24 -24 -25 -32 -2 -59 16 -21 24 -22 182 -19 l165 3 9
27 c8 22 6 32 -9 48 -17 18 -30 20 -172 20 -140 0 -155 -2 -173 -20z"/>
<path d="M2675 3015 c-43 -10 -94 -34 -196 -91 -32 -18 -88 -74 -131 -132
-128 -172 -157 -392 -77 -595 70 -178 244 -320 441 -361 97 -20 139 -20 236 0
387 80 596 494 428 853 -28 60 -93 147 -145 193 -57 51 -181 117 -249 134 -70
16 -239 16 -307 -1z m290 -101 c173 -53 308 -188 350 -349 19 -72 19 -198 0
-270 -42 -161 -188 -308 -348 -350 -100 -26 -151 -28 -234 -10 -186 41 -336
177 -389 354 -21 69 -23 199 -5 266 34 120 110 226 210 293 52 34 152 74 221
86 40 7 140 -3 195 -20z"/>
<path d="M2695 2710 c-109 -58 -167 -147 -173 -265 -7 -133 57 -241 174 -295
91 -43 137 -47 218 -20 90 30 157 84 192 157 25 50 29 70 29 143 0 100 -21
153 -87 218 -62 62 -118 85 -213 90 -74 3 -85 1 -140 -28z m220 -89 c75 -34
125 -111 125 -191 0 -63 -20 -108 -68 -155 -46 -44 -89 -58 -162 -53 -72 5
-119 34 -161 100 -87 134 18 318 181 318 25 0 63 -9 85 -19z"/>
<path d="M557 1183 c-11 -11 -8 -58 5 -71 8 -8 60 -12 169 -12 130 0 160 3
173 16 19 18 20 28 6 55 -10 18 -23 19 -179 19 -92 0 -171 -3 -174 -7z"/>
<path d="M602 998 c-15 -15 -15 -51 0 -66 8 -8 51 -12 128 -12 101 0 119 3
133 18 22 24 21 35 -1 55 -15 14 -41 17 -133 17 -76 0 -119 -4 -127 -12z"/>
<path d="M602 818 c-15 -15 -15 -51 0 -66 8 -8 51 -12 128 -12 101 0 119 3
133 18 22 24 21 35 -1 55 -15 14 -41 17 -133 17 -76 0 -119 -4 -127 -12z"/>
<path d="M563 643 c-19 -7 -16 -70 3 -77 9 -3 87 -6 175 -6 158 0 160 0 170
24 8 17 8 29 0 45 -11 20 -18 21 -174 20 -89 0 -168 -3 -174 -6z"/>
<path d="M4730 1169 c-9 -16 -8 -26 5 -45 15 -24 17 -24 178 -24 171 0 187 4
187 45 0 41 -16 45 -192 45 -159 0 -168 -1 -178 -21z"/>
<path d="M4782 998 c-19 -19 -14 -56 11 -72 16 -10 51 -13 131 -11 93 2 111 5
123 20 16 23 17 47 1 63 -17 17 -249 17 -266 0z"/>
<path d="M4782 818 c-19 -19 -14 -55 10 -72 17 -12 49 -16 129 -16 90 0 108 3
122 18 20 22 22 53 5 70 -17 17 -249 17 -266 0z"/>
<path d="M4731 626 c-16 -29 3 -65 34 -67 89 -4 312 5 323 13 15 13 16 50 0
66 -8 8 -62 12 -178 12 -165 0 -167 0 -179 -24z"/>
<path d="M1035 5259 c-11 -17 1 -21 15 -4 8 9 8 15 2 15 -6 0 -14 -5 -17 -11z"/>
<path d="M1077 5233 c-23 -4 -26 -7 -16 -19 9 -11 7 -14 -12 -14 -18 0 -20 -3
-10 -9 20 -13 46 -6 43 11 -2 11 5 14 25 12 16 -2 20 -1 10 2 -9 3 -15 10 -12
15 4 5 5 8 3 8 -2 -1 -16 -4 -31 -6z"/>
<path d="M970 5205 c0 -8 7 -15 15 -15 9 0 12 6 9 15 -4 8 -10 15 -15 15 -5 0
-9 -7 -9 -15z"/>
<path d="M900 5050 c0 -5 5 -10 11 -10 5 0 7 5 4 10 -3 6 -8 10 -11 10 -2 0
-4 -4 -4 -10z"/>
<path d="M908 5023 c7 -3 16 -2 19 1 4 3 -2 6 -13 5 -11 0 -14 -3 -6 -6z"/>
<path d="M765 5010 c-30 -8 -30 -8 8 -9 20 0 37 4 37 9 0 11 -2 11 -45 0z"/>
<path d="M830 5000 c0 -5 11 -10 24 -10 13 0 32 -3 42 -7 11 -4 15 -3 11 4 -4
6 -2 13 5 15 7 3 -9 5 -35 6 -26 1 -47 -2 -47 -8z"/>
<path d="M612 4863 c-11 -21 2 -63 18 -63 7 0 5 8 -4 21 -24 35 -10 50 45 48
27 -2 52 0 56 4 3 4 -19 7 -50 7 -43 0 -58 -4 -65 -17z"/>
<path d="M810 4873 c0 -7 -19 -14 -42 -16 l-43 -4 45 0 c65 0 93 -11 87 -34
-7 -28 6 -23 20 7 10 22 10 25 -4 20 -13 -5 -13 -4 -4 8 9 11 7 15 -8 19 -11
3 -22 0 -25 -7 -3 -7 -8 -6 -15 4 -7 9 -11 10 -11 3z"/>
<path d="M798 4826 c-10 -7 -15 -16 -11 -19 3 -4 -10 -7 -29 -7 -20 0 -38 5
-40 10 -4 12 -68 2 -68 -11 0 -11 162 -8 177 3 12 9 7 38 -6 38 -3 0 -14 -7
-23 -14z"/>
<path d="M642 4693 c3 -15 14 -18 66 -18 84 0 79 -12 -8 -17 -38 -2 -75 -9
-82 -16 -11 -11 -10 -12 3 -7 10 4 20 2 24 -4 3 -6 17 -11 30 -11 19 0 23 4
18 18 -5 16 -5 16 8 0 11 -13 32 -18 86 -20 93 -3 124 20 90 66 -13 18 -67 30
-67 15 0 -13 -74 -11 -87 2 -8 8 -13 8 -17 0 -9 -14 -46 -14 -46 -1 0 6 -5 10
-11 10 -6 0 -9 -8 -7 -17z m230 -45 c-6 -6 -9 0 -9 18 0 23 1 24 9 10 7 -12 7
-21 0 -28z m-192 -8 c0 -5 -4 -10 -10 -10 -5 0 -10 5 -10 10 0 6 5 10 10 10 6
0 10 -4 10 -10z"/>
<path d="M343 4600 c0 -25 2 -35 4 -22 2 12 2 32 0 45 -2 12 -4 2 -4 -23z"/>
<path d="M333 4510 c0 -25 2 -35 4 -22 2 12 2 32 0 45 -2 12 -4 2 -4 -23z"/>
<path d="M598 4523 c-17 -4 -34 -33 -19 -33 4 0 16 9 26 20 10 11 16 19 14 19
-2 -1 -11 -3 -21 -6z"/>
<path d="M615 4508 c-11 -11 -29 -23 -39 -27 -18 -7 -18 -9 4 -31 15 -15 25
-19 28 -12 2 7 8 9 14 6 5 -3 68 -7 139 -8 138 -3 169 6 169 44 0 25 -41 55
-52 37 -6 -9 -8 -9 -8 1 0 9 -30 12 -117 11 -105 0 -120 -2 -138 -21z m-11
-43 c-4 -8 -8 -15 -10 -15 -2 0 -4 7 -4 15 0 8 4 15 10 15 5 0 7 -7 4 -15z"/>
<path d="M400 4467 c0 -13 -5 -28 -10 -33 -7 -7 -5 -17 5 -30 13 -17 14 -15
15 34 0 28 -2 52 -5 52 -3 0 -5 -10 -5 -23z"/>
<path d="M348 4428 c3 -14 0 -17 -12 -12 -9 3 -16 1 -16 -6 0 -6 5 -8 10 -5
11 7 7 -36 -5 -55 -3 -5 1 -10 11 -10 12 0 15 -6 12 -25 -3 -13 -2 -22 3 -20
4 3 9 0 11 -7 3 -8 7 -6 11 5 4 10 2 17 -5 17 -6 0 1 10 16 21 15 12 25 24 22
27 -3 2 -12 -1 -21 -8 -16 -13 -45 -7 -45 10 0 7 6 8 19 0 25 -13 34 0 25 35
-5 18 -9 23 -14 14 -5 -7 -6 -18 -3 -26 3 -7 0 -13 -7 -13 -12 0 -10 27 4 61
4 10 2 16 -7 16 -9 0 -12 -7 -9 -19z"/>
</g>
</svg>
